<svg width="49" height="48" viewBox="0 0 49 48" fill="none" xmlns="http://www.w3.org/2000/svg">
<rect x="0.75" width="48" height="48" rx="24" fill="white" fill-opacity="0.6"/>
<g clip-path="url(#clip0_882_866)">
<path d="M18.1731 24.2999L22.7167 26.9943C23.9709 27.7381 25.5305 27.7404 26.787 27.0003L31.0501 24.4893M18.1731 24.2999V24.2999C15.7083 22.8001 15.7195 19.2183 18.1935 17.7339L22.6921 15.0348C23.9588 14.2748 25.5413 14.2748 26.808 15.0348L31.0906 17.6043C33.6666 19.1499 33.6832 22.8774 31.1211 24.4458L31.0501 24.4893M18.1731 24.2999L18.1731 28.6296C18.1731 30.1953 19.0871 31.6169 20.5115 32.2667L20.6323 32.3218C23.2426 33.5125 26.2459 33.4877 28.8362 32.2542V32.2542C30.1886 31.6102 31.0501 30.2458 31.0501 28.7479L31.0501 24.4893M34.35 22.2001L34.35 25.5001" stroke="#F94444" stroke-width="2.2" stroke-linecap="round"/>
<path d="M18.1731 24.2999L22.7167 26.9943C23.9709 27.7381 25.5305 27.7404 26.787 27.0003L31.0501 24.4893M18.1731 24.2999V24.2999C15.7083 22.8001 15.7195 19.2183 18.1935 17.7339L22.6921 15.0348C23.9588 14.2748 25.5413 14.2748 26.808 15.0348L31.0906 17.6043C33.6666 19.1499 33.6832 22.8774 31.1211 24.4458L31.0501 24.4893M18.1731 24.2999L18.1731 28.6296C18.1731 30.1953 19.0871 31.6169 20.5115 32.2667L20.6323 32.3218C23.2426 33.5125 26.2459 33.4877 28.8362 32.2542V32.2542C30.1886 31.6102 31.0501 30.2458 31.0501 28.7479L31.0501 24.4893M34.35 22.2001L34.35 25.5001" stroke="url(#paint0_linear_882_866)" stroke-width="2.2" stroke-linecap="round"/>
</g>
<defs>
<linearGradient id="paint0_linear_882_866" x1="4.8808" y1="17.9077" x2="26.1748" y2="2.77486" gradientUnits="userSpaceOnUse">
<stop stop-color="#3E56A3"/>
<stop offset="1" stop-color="#3FC3D8"/>
</linearGradient>
<clipPath id="clip0_882_866">
<rect width="24" height="24" fill="white" transform="translate(12.75 12)"/>
</clipPath>
</defs>
</svg>
