<svg width="44" height="44" viewBox="0 0 44 44" fill="none" xmlns="http://www.w3.org/2000/svg">
<g filter="url(#filter0_b_103_1397)">
<path d="M0 22C0 9.84974 9.84974 0 22 0C34.1503 0 44 9.84974 44 22C44 34.1503 34.1503 44 22 44C9.84974 44 0 34.1503 0 22Z" fill="white"/>
<path d="M17 27.3334V16.6667C17 15.7872 17 15.3474 17.1851 15.0872C17.3466 14.86 17.5956 14.7106 17.8721 14.675C18.1885 14.6342 18.5757 14.8407 19.3504 15.2538L19.3525 15.255L29.3525 20.5883C30.212 21.0467 30.6418 21.276 30.7826 21.5812C30.9053 21.847 30.9053 22.1532 30.7826 22.4191C30.6418 22.7243 30.212 22.9535 29.3525 23.4119L19.3525 28.7452L19.3498 28.7467C18.5755 29.1596 18.1884 29.3661 17.8721 29.3253C17.5956 29.2896 17.3466 29.1402 17.1851 28.9131C17 28.6528 17 28.213 17 27.3334Z" stroke="#363B4B" stroke-width="2" stroke-linecap="round" stroke-linejoin="round"/>
</g>
<defs>
<filter id="filter0_b_103_1397" x="-20" y="-20" width="84" height="84" filterUnits="userSpaceOnUse" color-interpolation-filters="sRGB">
<feFlood flood-opacity="0" result="BackgroundImageFix"/>
<feGaussianBlur in="BackgroundImageFix" stdDeviation="10"/>
<feComposite in2="SourceAlpha" operator="in" result="effect1_backgroundBlur_103_1397"/>
<feBlend mode="normal" in="SourceGraphic" in2="effect1_backgroundBlur_103_1397" result="shape"/>
</filter>
</defs>
</svg>
