<svg width="31" height="30" viewBox="0 0 31 30" fill="none" xmlns="http://www.w3.org/2000/svg">
<g clip-path="url(#clip0_94_5238)">
<path d="M30.2012 9.00006C30.2012 9.00006 29.9082 6.9317 29.0059 6.0235C27.8633 4.82819 26.5859 4.82233 26 4.75201C21.8047 4.44733 15.5059 4.44733 15.5059 4.44733H15.4941C15.4941 4.44733 9.19531 4.44733 5 4.75201C4.41406 4.82233 3.13672 4.82819 1.99414 6.0235C1.0918 6.9317 0.804687 9.00006 0.804687 9.00006C0.804687 9.00006 0.5 11.4317 0.5 13.8575V16.1309C0.5 18.5567 0.798828 20.9883 0.798828 20.9883C0.798828 20.9883 1.0918 23.0567 1.98828 23.9649C3.13086 25.1602 4.63086 25.1192 5.29883 25.2481C7.70117 25.4766 15.5 25.5469 15.5 25.5469C15.5 25.5469 21.8047 25.5352 26 25.2364C26.5859 25.1661 27.8633 25.1602 29.0059 23.9649C29.9082 23.0567 30.2012 20.9883 30.2012 20.9883C30.2012 20.9883 30.5 18.5626 30.5 16.1309V13.8575C30.5 11.4317 30.2012 9.00006 30.2012 9.00006ZM12.4004 18.8907V10.459L20.5039 14.6895L12.4004 18.8907Z" fill="white"/>
</g>
<defs>
<clipPath id="clip0_94_5238">
<rect width="30" height="30" fill="white" transform="translate(0.5)"/>
</clipPath>
</defs>
</svg>
