<svg width="48" height="48" viewBox="0 0 48 48" fill="none" xmlns="http://www.w3.org/2000/svg">
<rect width="48" height="48" rx="24" fill="white" fill-opacity="0.6"/>
<path d="M32 19H29.8486C29.3511 19 29 18.4975 29 18C29 16.3431 27.6569 15 26 15C24.3431 15 23 16.3431 23 18C23 18.4975 22.6488 19 22.1513 19H20C19.4477 19 19 19.4477 19 20V22.1513C19 22.6488 18.4975 23 18 23C16.3431 23 15 24.3431 15 26C15 27.6569 16.3431 29 18 29C18.4975 29 19 29.3511 19 29.8486V32C19 32.5523 19.4477 33 20 33H32C32.5523 33 33 32.5523 33 32V29.8486C33 29.3511 32.4975 29 32 29C30.3431 29 29 27.6569 29 26C29 24.3431 30.3431 23 32 23C32.4975 23 33 22.6488 33 22.1513V20C33 19.4477 32.5523 19 32 19Z" stroke="white" stroke-width="2.2" stroke-linecap="round" stroke-linejoin="round"/>
<path d="M32 19H29.8486C29.3511 19 29 18.4975 29 18C29 16.3431 27.6569 15 26 15C24.3431 15 23 16.3431 23 18C23 18.4975 22.6488 19 22.1513 19H20C19.4477 19 19 19.4477 19 20V22.1513C19 22.6488 18.4975 23 18 23C16.3431 23 15 24.3431 15 26C15 27.6569 16.3431 29 18 29C18.4975 29 19 29.3511 19 29.8486V32C19 32.5523 19.4477 33 20 33H32C32.5523 33 33 32.5523 33 32V29.8486C33 29.3511 32.4975 29 32 29C30.3431 29 29 27.6569 29 26C29 24.3431 30.3431 23 32 23C32.4975 23 33 22.6488 33 22.1513V20C33 19.4477 32.5523 19 32 19Z" stroke="url(#paint0_linear_882_936)" stroke-width="2.2" stroke-linecap="round" stroke-linejoin="round"/>
<defs>
<linearGradient id="paint0_linear_882_936" x1="15" y1="8.07692" x2="37.797" y2="11.8957" gradientUnits="userSpaceOnUse">
<stop stop-color="#3E56A3"/>
<stop offset="1" stop-color="#3FC3D8"/>
</linearGradient>
</defs>
</svg>
