<svg width="49" height="48" viewBox="0 0 49 48" fill="none" xmlns="http://www.w3.org/2000/svg">
<rect x="0.25" width="48" height="48" rx="24" fill="white" fill-opacity="0.6"/>
<path d="M29.25 32C29.25 30.3431 27.0114 29 24.25 29C21.4886 29 19.25 30.3431 19.25 32M33.25 28.9999C33.25 27.7697 32.0159 26.7124 30.25 26.2495M15.25 28.9999C15.25 27.7697 16.4841 26.7124 18.25 26.2495M30.25 22.2361C30.8637 21.6868 31.25 20.8885 31.25 20C31.25 18.3431 29.9069 17 28.25 17C27.4816 17 26.7808 17.2889 26.25 17.7639M18.25 22.2361C17.6363 21.6868 17.25 20.8885 17.25 20C17.25 18.3431 18.5931 17 20.25 17C21.0184 17 21.7192 17.2889 22.25 17.7639M24.25 26C22.5931 26 21.25 24.6569 21.25 23C21.25 21.3431 22.5931 20 24.25 20C25.9069 20 27.25 21.3431 27.25 23C27.25 24.6569 25.9069 26 24.25 26Z" stroke="white" stroke-width="2.2" stroke-linecap="round" stroke-linejoin="round"/>
<path d="M29.25 32C29.25 30.3431 27.0114 29 24.25 29C21.4886 29 19.25 30.3431 19.25 32M33.25 28.9999C33.25 27.7697 32.0159 26.7124 30.25 26.2495M15.25 28.9999C15.25 27.7697 16.4841 26.7124 18.25 26.2495M30.25 22.2361C30.8637 21.6868 31.25 20.8885 31.25 20C31.25 18.3431 29.9069 17 28.25 17C27.4816 17 26.7808 17.2889 26.25 17.7639M18.25 22.2361C17.6363 21.6868 17.25 20.8885 17.25 20C17.25 18.3431 18.5931 17 20.25 17C21.0184 17 21.7192 17.2889 22.25 17.7639M24.25 26C22.5931 26 21.25 24.6569 21.25 23C21.25 21.3431 22.5931 20 24.25 20C25.9069 20 27.25 21.3431 27.25 23C27.25 24.6569 25.9069 26 24.25 26Z" stroke="url(#paint0_linear_882_946)" stroke-width="2.2" stroke-linecap="round" stroke-linejoin="round"/>
<defs>
<linearGradient id="paint0_linear_882_946" x1="15.25" y1="11.2308" x2="37.7765" y2="15.7589" gradientUnits="userSpaceOnUse">
<stop stop-color="#3E56A3"/>
<stop offset="1" stop-color="#3FC3D8"/>
</linearGradient>
</defs>
</svg>
