<svg width="35" height="35" viewBox="0 0 35 35" fill="none" xmlns="http://www.w3.org/2000/svg">
<path d="M13 32H23M18 2C12.4772 2 8 6.47715 8 12C8 14.0242 8.6014 15.9079 9.6353 17.4822C11.2251 19.903 12.0197 21.1135 12.1229 21.2943C13.0408 22.9025 12.8715 22.3349 12.987 24.183C13 24.3908 13 24.7052 13 25.3337C13 26.2542 13.7462 27.0004 14.6667 27.0004H21.3333C22.2538 27.0004 23 26.2542 23 25.3337C23 24.7052 23 24.3908 23.013 24.183C23.1285 22.3349 22.9585 22.9025 23.8765 21.2943C23.9797 21.1135 24.7752 19.903 26.3651 17.4822C27.3989 15.9079 28.0003 14.0242 28.0003 12C28.0003 6.47715 23.5228 2 18 2Z" stroke="url(#paint0_linear_955_1326)" stroke-width="3.33333" stroke-linecap="round" stroke-linejoin="round"/>
<defs>
<linearGradient id="paint0_linear_955_1326" x1="8" y1="-9.53846" x2="33.7205" y2="-6.66611" gradientUnits="userSpaceOnUse">
<stop stop-color="#3E56A3"/>
<stop offset="1" stop-color="#3FC3D8"/>
</linearGradient>
</defs>
</svg>
