<svg width="60" height="60" viewBox="0 0 60 60" fill="none" xmlns="http://www.w3.org/2000/svg">
<rect x="0.5" y="0.5" width="59" height="59" rx="29.5" stroke="#3F92C0"/>
<path d="M21.344 42V38.16L27.744 31.568C29.0027 30.2667 29.952 29.2427 30.592 28.496C31.2533 27.728 31.7013 27.088 31.936 26.576C32.192 26.064 32.32 25.5627 32.32 25.072C32.32 24.1973 32.032 23.5147 31.456 23.024C30.9013 22.512 30.1973 22.256 29.344 22.256C28.4693 22.256 27.6907 22.512 27.008 23.024C26.3253 23.5147 25.824 24.272 25.504 25.296L21.184 23.888C21.44 22.6507 21.9733 21.5733 22.784 20.656C23.5947 19.7387 24.576 19.0347 25.728 18.544C26.88 18.032 28.0853 17.776 29.344 17.776C30.9227 17.776 32.3093 18.0533 33.504 18.608C34.6987 19.1627 35.6267 19.9413 36.288 20.944C36.9493 21.9467 37.28 23.12 37.28 24.464C37.28 25.3173 37.1307 26.16 36.832 26.992C36.5333 27.8027 36.0747 28.6347 35.456 29.488C34.8587 30.32 34.08 31.2267 33.12 32.208L27.648 37.84H37.504V42H21.344Z" fill="#3F92C0"/>
<path d="M21.344 42V38.16L27.744 31.568C29.0027 30.2667 29.952 29.2427 30.592 28.496C31.2533 27.728 31.7013 27.088 31.936 26.576C32.192 26.064 32.32 25.5627 32.32 25.072C32.32 24.1973 32.032 23.5147 31.456 23.024C30.9013 22.512 30.1973 22.256 29.344 22.256C28.4693 22.256 27.6907 22.512 27.008 23.024C26.3253 23.5147 25.824 24.272 25.504 25.296L21.184 23.888C21.44 22.6507 21.9733 21.5733 22.784 20.656C23.5947 19.7387 24.576 19.0347 25.728 18.544C26.88 18.032 28.0853 17.776 29.344 17.776C30.9227 17.776 32.3093 18.0533 33.504 18.608C34.6987 19.1627 35.6267 19.9413 36.288 20.944C36.9493 21.9467 37.28 23.12 37.28 24.464C37.28 25.3173 37.1307 26.16 36.832 26.992C36.5333 27.8027 36.0747 28.6347 35.456 29.488C34.8587 30.32 34.08 31.2267 33.12 32.208L27.648 37.84H37.504V42H21.344Z" fill="#3F92C0"/>
</svg>
