<svg width="48" height="48" viewBox="0 0 48 48" fill="none" xmlns="http://www.w3.org/2000/svg">
<rect width="48" height="48" rx="24" fill="white" fill-opacity="0.6"/>
<path d="M20.1849 16.2H19.5849C17.5966 16.2 15.9849 17.8117 15.9849 19.8V28.2C15.9849 30.1882 17.5966 31.8 19.5849 31.8H28.5849C30.5731 31.8 32.1849 30.1882 32.1849 28.2V19.8C32.1849 17.8117 30.5731 16.2 28.5849 16.2L27.9849 16.2M20.1849 16.2V23.6826C20.1849 24.4428 20.8828 25.0115 21.6274 24.8578L24.1222 24.343C24.2952 24.3073 24.4739 24.3103 24.6456 24.3516L26.504 24.799C27.2588 24.9807 27.9849 24.4087 27.9849 23.6323V16.2M20.1849 16.2L27.9849 16.2" stroke="black" stroke-width="2.2"/>
<path d="M20.1849 16.2H19.5849C17.5966 16.2 15.9849 17.8117 15.9849 19.8V28.2C15.9849 30.1882 17.5966 31.8 19.5849 31.8H28.5849C30.5731 31.8 32.1849 30.1882 32.1849 28.2V19.8C32.1849 17.8117 30.5731 16.2 28.5849 16.2L27.9849 16.2M20.1849 16.2V23.6826C20.1849 24.4428 20.8828 25.0115 21.6274 24.8578L24.1222 24.343C24.2952 24.3073 24.4739 24.3103 24.6456 24.3516L26.504 24.799C27.2588 24.9807 27.9849 24.4087 27.9849 23.6323V16.2M20.1849 16.2L27.9849 16.2" stroke="url(#paint0_linear_882_62)" stroke-width="2.2"/>
<defs>
<linearGradient id="paint0_linear_882_62" x1="15.9849" y1="10.2" x2="36.4584" y2="13.7614" gradientUnits="userSpaceOnUse">
<stop stop-color="#3E56A3"/>
<stop offset="1" stop-color="#3FC3D8"/>
</linearGradient>
</defs>
</svg>
