<svg width="60" height="60" viewBox="0 0 60 60" fill="none" xmlns="http://www.w3.org/2000/svg">
<rect x="0.5" y="0.5" width="59" height="59" rx="29.5" stroke="#3F7FB7"/>
<path d="M29.344 42.384C28.0213 42.384 26.7627 42.1387 25.568 41.648C24.3733 41.136 23.36 40.4213 22.528 39.504C21.696 38.5867 21.1413 37.5093 20.864 36.272L25.248 34.8C25.6107 35.824 26.144 36.6027 26.848 37.136C27.552 37.648 28.384 37.904 29.344 37.904C30.1333 37.904 30.8053 37.7547 31.36 37.456C31.936 37.1573 32.384 36.7413 32.704 36.208C33.024 35.6533 33.184 35.0133 33.184 34.288C33.184 33.5627 33.024 32.944 32.704 32.432C32.4053 31.8987 31.968 31.4933 31.392 31.216C30.8373 30.9173 30.1547 30.768 29.344 30.768C28.8747 30.768 28.4053 30.8213 27.936 30.928C27.4667 31.0347 27.04 31.184 26.656 31.376L25.504 28.976L31.616 22.32H22.304V18.16H37.184V22L30.912 29.136L31.072 27.12C32.5013 27.12 33.7387 27.4187 34.784 28.016C35.8507 28.592 36.672 29.4027 37.248 30.448C37.8453 31.4933 38.144 32.7093 38.144 34.096C38.144 35.6747 37.76 37.0933 36.992 38.352C36.224 39.6107 35.1787 40.6027 33.856 41.328C32.5333 42.032 31.0293 42.384 29.344 42.384Z" fill="#333F56"/>
<path d="M29.344 42.384C28.0213 42.384 26.7627 42.1387 25.568 41.648C24.3733 41.136 23.36 40.4213 22.528 39.504C21.696 38.5867 21.1413 37.5093 20.864 36.272L25.248 34.8C25.6107 35.824 26.144 36.6027 26.848 37.136C27.552 37.648 28.384 37.904 29.344 37.904C30.1333 37.904 30.8053 37.7547 31.36 37.456C31.936 37.1573 32.384 36.7413 32.704 36.208C33.024 35.6533 33.184 35.0133 33.184 34.288C33.184 33.5627 33.024 32.944 32.704 32.432C32.4053 31.8987 31.968 31.4933 31.392 31.216C30.8373 30.9173 30.1547 30.768 29.344 30.768C28.8747 30.768 28.4053 30.8213 27.936 30.928C27.4667 31.0347 27.04 31.184 26.656 31.376L25.504 28.976L31.616 22.32H22.304V18.16H37.184V22L30.912 29.136L31.072 27.12C32.5013 27.12 33.7387 27.4187 34.784 28.016C35.8507 28.592 36.672 29.4027 37.248 30.448C37.8453 31.4933 38.144 32.7093 38.144 34.096C38.144 35.6747 37.76 37.0933 36.992 38.352C36.224 39.6107 35.1787 40.6027 33.856 41.328C32.5333 42.032 31.0293 42.384 29.344 42.384Z" fill="#3F7FB7"/>
</svg>
