<svg width="49" height="48" viewBox="0 0 49 48" fill="none" xmlns="http://www.w3.org/2000/svg">
<rect x="0.75" width="48" height="48" rx="24" fill="white" fill-opacity="0.6"/>
<path d="M14.75 32.0001H34.75M32.75 23.4522V32.0002L26.75 32.0001V28.0001C26.75 26.8955 25.8546 26.0001 24.75 26.0001C23.6454 26.0001 22.75 26.8955 22.75 28.0001V32.0001H16.75V23.4522C16.75 22.9179 16.75 22.6507 16.815 22.4021C16.8725 22.1817 16.9673 21.9728 17.0952 21.7843C17.2396 21.5717 17.4406 21.3958 17.8428 21.0439L22.6428 16.8439C23.3894 16.1907 23.7625 15.8641 24.1826 15.7398C24.5528 15.6303 24.9472 15.6303 25.3174 15.7398C25.7375 15.8641 26.1108 16.1907 26.8574 16.8439L31.6574 21.0439C32.0596 21.3958 32.2604 21.5717 32.4048 21.7843C32.5327 21.9728 32.6275 22.1817 32.6851 22.4021C32.75 22.6507 32.75 22.9179 32.75 23.4522Z" stroke="white" stroke-width="2.2" stroke-linecap="round" stroke-linejoin="round"/>
<path d="M14.75 32.0001H34.75M32.75 23.4522V32.0002L26.75 32.0001V28.0001C26.75 26.8955 25.8546 26.0001 24.75 26.0001C23.6454 26.0001 22.75 26.8955 22.75 28.0001V32.0001H16.75V23.4522C16.75 22.9179 16.75 22.6507 16.815 22.4021C16.8725 22.1817 16.9673 21.9728 17.0952 21.7843C17.2396 21.5717 17.4406 21.3958 17.8428 21.0439L22.6428 16.8439C23.3894 16.1907 23.7625 15.8641 24.1826 15.7398C24.5528 15.6303 24.9472 15.6303 25.3174 15.7398C25.7375 15.8641 26.1108 16.1907 26.8574 16.8439L31.6574 21.0439C32.0596 21.3958 32.2604 21.5717 32.4048 21.7843C32.5327 21.9728 32.6275 22.1817 32.6851 22.4021C32.75 22.6507 32.75 22.9179 32.75 23.4522Z" stroke="url(#paint0_linear_882_159)" stroke-width="2.2" stroke-linecap="round" stroke-linejoin="round"/>
<defs>
<linearGradient id="paint0_linear_882_159" x1="14.75" y1="9.37216" x2="39.7406" y2="14.4952" gradientUnits="userSpaceOnUse">
<stop stop-color="#3E56A3"/>
<stop offset="1" stop-color="#3FC3D8"/>
</linearGradient>
</defs>
</svg>
