<svg width="44" height="33" viewBox="0 0 44 33" fill="none" xmlns="http://www.w3.org/2000/svg">
<path d="M25.0064 33V24.8852C27.5791 24.3082 29.6739 23.2623 31.291 21.7475C32.9816 20.1607 34.0842 18.3213 34.5987 16.2295H31.2115C29.0024 16.2295 27.2115 14.4386 27.2115 12.2295V0H43.75V9.41312C43.75 15.7607 42.1697 20.9902 39.009 25.1016C35.8483 29.141 31.1808 31.7738 25.0064 33ZM0.75 33V24.8852C3.32265 24.3082 5.41752 23.2623 7.03462 21.7475C8.72521 20.1607 9.82778 18.3213 10.3423 16.2295H6.95513C4.74599 16.2295 2.95513 14.4386 2.95513 12.2295V0H19.4936V9.41312C19.4936 15.7607 17.9132 20.9902 14.7526 25.1016C11.5919 29.141 6.92436 31.7738 0.75 33Z" fill="#F4F2FB"/>
</svg>
