<svg width="49" height="48" viewBox="0 0 49 48" fill="none" xmlns="http://www.w3.org/2000/svg">
<rect x="0.5" width="48" height="48" rx="24" fill="white" fill-opacity="0.6"/>
<path d="M29.1165 31.3323C27.8348 29.9008 25.9726 29 23.8999 29C21.8272 29 19.9648 29.9008 18.6831 31.3323M23.8999 33C18.9293 33 14.8999 28.9706 14.8999 24C14.8999 19.0294 18.9293 15 23.8999 15C28.8705 15 32.8999 19.0294 32.8999 24C32.8999 28.9706 28.8705 33 23.8999 33ZM23.8999 26C22.243 26 20.8999 24.6569 20.8999 23C20.8999 21.3431 22.243 20 23.8999 20C25.5568 20 26.8999 21.3431 26.8999 23C26.8999 24.6569 25.5568 26 23.8999 26Z" stroke="white" stroke-width="2" stroke-linecap="round" stroke-linejoin="round"/>
<path d="M29.1165 31.3323C27.8348 29.9008 25.9726 29 23.8999 29C21.8272 29 19.9648 29.9008 18.6831 31.3323M23.8999 33C18.9293 33 14.8999 28.9706 14.8999 24C14.8999 19.0294 18.9293 15 23.8999 15C28.8705 15 32.8999 19.0294 32.8999 24C32.8999 28.9706 28.8705 33 23.8999 33ZM23.8999 26C22.243 26 20.8999 24.6569 20.8999 23C20.8999 21.3431 22.243 20 23.8999 20C25.5568 20 26.8999 21.3431 26.8999 23C26.8999 24.6569 25.5568 26 23.8999 26Z" stroke="url(#paint0_linear_882_853)" stroke-width="2" stroke-linecap="round" stroke-linejoin="round"/>
<defs>
<linearGradient id="paint0_linear_882_853" x1="14.8999" y1="8.07692" x2="37.6969" y2="11.8957" gradientUnits="userSpaceOnUse">
<stop stop-color="#3E56A3"/>
<stop offset="1" stop-color="#3FC3D8"/>
</linearGradient>
</defs>
</svg>
