<svg width="193" height="20" viewBox="0 0 193 20" fill="none" xmlns="http://www.w3.org/2000/svg">
<path d="M10.9437 14.6511C13.4815 14.6511 15.5388 12.5938 15.5388 10.056C15.5388 7.51824 13.4815 5.46094 10.9437 5.46094C8.40593 5.46094 6.34863 7.51824 6.34863 10.056C6.34863 12.5938 8.40593 14.6511 10.9437 14.6511Z" fill="#3FC3D8"/>
<path d="M26.9135 14.6511C29.4513 14.6511 31.5086 12.5938 31.5086 10.056C31.5086 7.51824 29.4513 5.46094 26.9135 5.46094C24.3757 5.46094 22.3184 7.51824 22.3184 10.056C22.3184 12.5938 24.3757 14.6511 26.9135 14.6511Z" fill="white"/>
<path d="M20.9252 9.56686C20.8876 8.36158 20.5862 7.19397 20.1343 6.1017C19.381 4.29379 18.1004 2.78719 16.5184 1.69491C14.9365 0.602636 12.978 0 10.9441 0C9.58813 0 8.2322 0.263654 7.06459 0.790961C5.25668 1.54426 3.75009 2.82486 2.65781 4.40678C1.56553 5.9887 0.962891 7.94727 0.962891 9.98117C0.962891 11.3371 1.22654 12.693 1.75385 13.8606C2.50715 15.6686 3.78775 17.1751 5.36967 18.2674C6.95159 19.3597 8.91016 19.9623 10.9441 19.9623V15.8945C10.1154 15.8945 9.36214 15.7439 8.64651 15.4426C7.59189 14.9906 6.68794 14.2373 6.04764 13.2957C5.40734 12.3541 5.03069 11.2241 5.03069 10.0188C5.03069 9.19021 5.18135 8.43691 5.48267 7.72128C5.93464 6.66667 6.68794 5.76271 7.62956 5.12241C8.57118 4.48211 9.70112 4.10546 10.9064 4.10546C11.735 4.10546 12.4883 4.25612 13.2039 4.55744C14.2586 5.00942 15.1625 5.76271 15.8028 6.70433C16.3678 7.53296 16.7068 8.51224 16.7821 9.52919H20.9252V9.56686Z" fill="#3FC3D8"/>
<path d="M36.0282 6.1017C35.2749 4.29379 33.9943 2.78719 32.4124 1.69491C30.8305 0.602636 28.8719 0 26.838 0V4.10546C27.6667 4.10546 28.42 4.25612 29.1356 4.55744C30.1902 5.00942 31.0942 5.76271 31.7345 6.70433C32.3748 7.64595 32.7514 8.77589 32.7514 9.98117C32.7514 10.8098 32.6007 11.5631 32.2994 12.2787C31.8474 13.3333 31.0942 14.2373 30.1525 14.8776C29.2109 15.5179 28.081 15.8945 26.8757 15.8945C25.7834 15.8945 24.7665 15.5932 23.8625 15.0659C22.9962 14.5386 22.2429 13.7853 21.7533 12.919C21.4143 12.2787 21.1507 11.6008 21.0377 10.8475H16.8945C17.0075 12.3164 17.4595 13.71 18.1751 14.9529C19.0414 16.4595 20.2844 17.7401 21.7533 18.6064C23.2599 19.5104 24.9925 20 26.838 20C28.194 20 29.5499 19.7363 30.7175 19.209C32.5254 18.4557 34.032 17.1751 35.1243 15.5932C36.2166 14.0113 36.8192 12.0527 36.8192 10.0188C36.8192 8.58757 36.5555 7.2693 36.0282 6.1017Z" fill="white"/>
<path d="M50.4548 3.69174C49.3249 3.69174 48.2703 3.95539 47.3286 4.52037C46.387 5.08534 45.6337 5.83863 45.1064 6.81792C44.5791 7.7972 44.3155 8.85182 44.3155 10.0194C44.3155 11.8273 44.9181 13.3339 46.1234 14.5392C47.3286 15.7445 48.8352 16.3848 50.6055 16.3848C51.7354 16.3848 52.7524 16.1588 53.6187 15.6691C54.5226 15.1795 55.2382 14.5769 55.8409 13.8236L58.2891 16.0081C57.4228 17.1004 56.3305 17.9667 55.0123 18.607C53.6563 19.2473 52.1874 19.5486 50.5301 19.5486C49.1366 19.5486 47.7806 19.285 46.5753 18.7953C45.3324 18.3057 44.3155 17.6277 43.4492 16.7614C42.5829 15.8951 41.9426 14.9158 41.4529 13.7482C40.9633 12.5806 40.7373 11.3377 40.7373 10.0194C40.7373 8.70116 40.9633 7.45822 41.4529 6.29061C41.9426 5.123 42.5829 4.10605 43.4492 3.27743C44.3155 2.41114 45.3324 1.73317 46.5377 1.24353C47.743 0.753889 49.0612 0.490234 50.4925 0.490234C51.8484 0.490234 53.0913 0.716223 54.2213 1.20587C55.3889 1.65784 56.3682 2.33581 57.2345 3.16443L54.9369 5.57498C53.694 4.33204 52.1874 3.69174 50.4548 3.69174Z" fill="white"/>
<path d="M60.1339 16.2337C59.5312 15.2167 59.2676 14.0868 59.2676 12.8815C59.2676 11.6762 59.5689 10.5463 60.1339 9.52935C60.7365 8.5124 61.5275 7.68377 62.5821 7.1188C63.6367 6.51616 64.8043 6.21484 66.0472 6.21484C67.3278 6.21484 68.4954 6.51616 69.5124 7.1188C70.567 7.72144 71.358 8.5124 71.9606 9.52935C72.5632 10.5463 72.8269 11.6762 72.8269 12.8815C72.8269 14.0868 72.5256 15.2167 71.9606 16.2337C71.358 17.2506 70.567 18.0416 69.5124 18.6442C68.4578 19.2469 67.2902 19.5482 66.0472 19.5482C64.7666 19.5482 63.599 19.2469 62.5821 18.6442C61.5651 18.0416 60.7365 17.2506 60.1339 16.2337ZM63.6367 10.3956C62.9964 11.0736 62.6951 11.9022 62.6951 12.8815C62.6951 13.8608 62.9964 14.6894 63.6367 15.3674C64.277 16.0454 65.068 16.3843 66.0849 16.3843C67.0642 16.3843 67.8928 16.0454 68.5331 15.3674C69.1734 14.6894 69.4747 13.8608 69.4747 12.8815C69.4747 11.9022 69.1734 11.0736 68.5331 10.3956C67.8928 9.71767 67.1019 9.37869 66.0849 9.37869C65.068 9.37869 64.277 9.71767 63.6367 10.3956Z" fill="white"/>
<path d="M77.6482 19.2841H74.2207V6.47808H77.5352V7.49503C78.6275 6.62874 79.8328 6.17676 81.151 6.17676C82.0173 6.17676 82.8459 6.36508 83.6369 6.74173C84.4279 7.11838 85.0682 7.60802 85.5955 8.24832C86.0474 8.77563 86.3864 9.37826 86.6124 10.0939C86.8384 10.8095 86.9514 11.6758 86.9514 12.7304V19.2841H83.4862V12.5044C83.4862 11.4122 83.2226 10.5835 82.7329 10.0939C82.2433 9.60425 81.603 9.37826 80.812 9.37826C80.1341 9.37826 79.5314 9.52892 78.9665 9.86791C78.4015 10.2069 77.9872 10.5459 77.6859 10.9602V19.2841H77.6482Z" fill="white"/>
<path d="M91.6599 19.2841H88.2324V6.47808H91.5469V7.49503C92.6392 6.62874 93.8445 6.17676 95.1627 6.17676C96.029 6.17676 96.8577 6.36508 97.6486 6.74173C98.4396 7.11838 99.0799 7.60802 99.6072 8.24832C100.059 8.77563 100.398 9.37826 100.624 10.0939C100.85 10.8095 100.963 11.6758 100.963 12.7304V19.2841H97.4979V12.5044C97.4979 11.4122 97.2343 10.5835 96.7447 10.0939C96.255 9.60425 95.6147 9.37826 94.8238 9.37826C94.1458 9.37826 93.5431 9.52892 92.9782 9.86791C92.4132 10.2069 91.9989 10.5459 91.6976 10.9602V19.2841H91.6599Z" fill="white"/>
<path d="M111.999 15.2916L113.958 17.2502C113.355 17.9658 112.564 18.5308 111.623 18.9451C110.681 19.3594 109.702 19.5478 108.685 19.5478C106.726 19.5478 105.144 18.9451 103.864 17.7022C102.583 16.4592 101.98 14.8773 101.98 12.8811C101.98 11.9771 102.131 11.1485 102.432 10.3199C102.734 9.52892 103.148 8.81329 103.675 8.17299C104.203 7.57035 104.881 7.08071 105.634 6.70407C106.425 6.32742 107.291 6.17676 108.195 6.17676C109.363 6.17676 110.38 6.47808 111.321 7.08071C112.263 7.68335 112.979 8.47431 113.468 9.49126C113.996 10.5082 114.222 11.5628 114.222 12.7681C114.222 13.1447 114.184 13.4461 114.146 13.7474H105.257C105.333 14.6513 105.709 15.367 106.35 15.9319C106.99 16.4969 107.781 16.7606 108.685 16.7606C109.363 16.7606 109.965 16.6099 110.53 16.3086C111.171 16.0449 111.623 15.7059 111.999 15.2916ZM105.446 11.2238H110.756C110.719 10.6212 110.455 10.0939 109.965 9.64192C109.476 9.18994 108.911 8.96395 108.233 8.96395C107.517 8.96395 106.915 9.18994 106.387 9.64192C105.86 10.0939 105.559 10.6212 105.446 11.2238Z" fill="white"/>
<path d="M125.37 14.6896L128.007 16.6481C126.575 18.569 124.617 19.5106 122.168 19.5106C120.21 19.5106 118.553 18.8703 117.272 17.5897C115.954 16.3091 115.313 14.7272 115.313 12.844C115.313 11.601 115.615 10.4711 116.217 9.45415C116.82 8.4372 117.649 7.60857 118.703 7.0436C119.758 6.44097 120.926 6.13965 122.206 6.13965C123.298 6.13965 124.315 6.36564 125.257 6.85528C126.199 7.30726 126.99 7.94756 127.592 8.73852L125.182 10.8854C124.843 10.3958 124.391 10.0191 123.901 9.75547C123.374 9.49181 122.846 9.34116 122.244 9.34116C121.265 9.34116 120.436 9.68014 119.758 10.3581C119.118 11.0361 118.779 11.8647 118.779 12.844C118.779 13.8609 119.118 14.6896 119.758 15.3675C120.398 16.0078 121.265 16.3468 122.319 16.3468C122.959 16.3468 123.562 16.1961 124.127 15.8572C124.654 15.5558 125.069 15.1792 125.37 14.6896Z" fill="white"/>
<path d="M138.627 16.3844L139.155 19.2846C138.665 19.4729 137.949 19.5482 137.008 19.5482C134.974 19.5482 133.505 18.9456 132.563 17.7026C131.923 16.8363 131.622 15.5557 131.622 13.8608V9.37872H128.797V6.47853H131.622V0.71582H135.087V6.47853H139.305V9.37872H135.087V14.2751C135.087 15.0284 135.238 15.5557 135.501 15.8947C135.878 16.309 136.443 16.535 137.271 16.535C137.761 16.535 138.251 16.4597 138.627 16.3844Z" fill="white"/>
<path d="M144.692 19.285H140.963L148.91 0.753906H151.434L159.381 19.285H155.652L153.844 15.2172H146.424L144.692 19.285ZM150.115 6.55428L147.743 12.0157H152.451L150.115 6.55428Z" fill="#3FC3D8"/>
<path d="M160.399 0.791992H166.689C167.668 0.791992 168.496 0.904986 169.137 1.13097C169.777 1.35696 170.342 1.65828 170.832 2.11026C171.359 2.56224 171.773 3.12721 172.075 3.76751C172.376 4.40781 172.527 5.08578 172.527 5.83907C172.527 6.40404 172.414 7.00668 172.188 7.57165C171.962 8.13662 171.66 8.5886 171.359 8.92758C172.188 9.3419 172.866 9.9822 173.355 10.8485C173.883 11.7148 174.109 12.6564 174.109 13.6733C174.109 14.4266 173.958 15.1799 173.657 15.8579C173.355 16.5359 172.941 17.1385 172.414 17.6658C171.321 18.7581 169.702 19.3231 167.555 19.3231H160.323V0.791992H160.399ZM163.939 3.95583V7.91063H166.463C167.367 7.91063 168.007 7.68465 168.421 7.27033C168.76 6.89369 168.948 6.44171 168.948 5.95207C168.948 5.46243 168.76 5.01045 168.421 4.6338C168.007 4.18182 167.367 3.9935 166.463 3.9935H163.939V3.95583ZM163.939 16.1216H167.517C168.609 16.1216 169.4 15.8579 169.89 15.2929C170.342 14.841 170.53 14.276 170.53 13.598C170.53 12.92 170.304 12.3551 169.89 11.9031C169.4 11.3381 168.609 11.0745 167.517 11.0745H163.939V16.1216Z" fill="#3FC3D8"/>
<path d="M177.348 19.285H173.619L181.566 0.753906H184.09L192.037 19.285H188.308L186.5 15.2172H179.081L177.348 19.285ZM182.772 6.55428L180.436 12.0157H185.145L182.772 6.55428Z" fill="#3FC3D8"/>
</svg>
