<svg width="179" height="20" viewBox="0 0 179 20" fill="none" xmlns="http://www.w3.org/2000/svg">
<path d="M9.33631 14.351C11.7101 14.351 13.6345 12.4266 13.6345 10.0528C13.6345 7.67893 11.7101 5.75455 9.33631 5.75455C6.96246 5.75455 5.03809 7.67893 5.03809 10.0528C5.03809 12.4266 6.96246 14.351 9.33631 14.351Z" fill="#3FC3D8"/>
<path d="M24.2745 14.351C26.6484 14.351 28.5728 12.4266 28.5728 10.0528C28.5728 7.67893 26.6484 5.75455 24.2745 5.75455C21.9007 5.75455 19.9763 7.67893 19.9763 10.0528C19.9763 12.4266 21.9007 14.351 24.2745 14.351Z" fill="#3E56A3"/>
<path d="M18.6726 9.59484C18.6374 8.46744 18.3555 7.37527 17.9327 6.35356C17.2281 4.66246 16.0302 3.2532 14.5505 2.2315C13.0708 1.20979 11.2388 0.646088 9.3363 0.646088C8.06797 0.646088 6.79964 0.892707 5.70747 1.38595C4.01637 2.09057 2.60712 3.28844 1.58541 4.76815C0.563701 6.24787 0 8.07989 0 9.98238C0 11.2507 0.246619 12.519 0.739858 13.6112C1.44448 15.3023 2.64235 16.7116 4.12206 17.7333C5.60178 18.755 7.43381 19.3187 9.3363 19.3187V15.5137C8.56121 15.5137 7.85658 15.3728 7.18719 15.0909C6.20071 14.6681 5.35516 13.9635 4.75623 13.0827C4.15729 12.202 3.80498 11.145 3.80498 10.0176C3.80498 9.24253 3.94591 8.5379 4.22776 7.86851C4.65053 6.88203 5.35516 6.03648 6.23594 5.43755C7.11673 4.83861 8.17367 4.4863 9.30107 4.4863C10.0762 4.4863 10.7808 4.62723 11.4502 4.90908C12.4367 5.33185 13.2822 6.03648 13.8811 6.91726C14.4096 7.69235 14.7267 8.60836 14.7972 9.55961H18.6726V9.59484Z" fill="#3FC3D8"/>
<path d="M32.8003 6.35356C32.0957 4.66246 30.8978 3.2532 29.4181 2.2315C27.9384 1.20979 26.1064 0.646088 24.2039 0.646088V4.4863C24.979 4.4863 25.6836 4.62723 26.353 4.90908C27.3395 5.33185 28.185 6.03648 28.784 6.91726C29.3829 7.79804 29.7352 8.85498 29.7352 9.98238C29.7352 10.7575 29.5943 11.4621 29.3124 12.1315C28.8897 13.118 28.185 13.9635 27.3043 14.5625C26.4235 15.1614 25.3665 15.5137 24.2391 15.5137C23.2174 15.5137 22.2662 15.2318 21.4206 14.7386C20.6103 14.2454 19.9057 13.5407 19.4477 12.7304C19.1306 12.1315 18.884 11.4973 18.7783 10.7927H14.9028C15.0085 12.1667 15.4313 13.4703 16.1007 14.6329C16.911 16.0422 18.0736 17.24 19.4477 18.0504C20.8569 18.8959 22.4776 19.3539 24.2039 19.3539C25.4722 19.3539 26.7406 19.1073 27.8327 18.6141C29.5238 17.9094 30.9331 16.7116 31.9548 15.2319C32.9765 13.7521 33.5402 11.9201 33.5402 10.0176C33.5402 8.67883 33.2936 7.44573 32.8003 6.35356Z" fill="#3E56A3"/>
<path d="M46.294 4.09886C45.2371 4.09886 44.2506 4.34548 43.3698 4.87395C42.489 5.40242 41.7844 6.10705 41.2912 7.02306C40.7979 7.93908 40.5513 8.92555 40.5513 10.0177C40.5513 11.7088 41.115 13.1181 42.2424 14.2455C43.3698 15.3729 44.7791 15.9718 46.4349 15.9718C47.4919 15.9718 48.4431 15.7604 49.2535 15.3024C50.099 14.8444 50.7684 14.2807 51.3321 13.5761L53.6221 15.6195C52.8118 16.6412 51.7901 17.4515 50.557 18.0505C49.2887 18.6494 47.9147 18.9312 46.3645 18.9312C45.0609 18.9312 43.7926 18.6846 42.6652 18.2266C41.5026 17.7686 40.5513 17.1344 39.741 16.3241C38.9307 15.5138 38.3317 14.5978 37.8737 13.5056C37.4157 12.4135 37.2043 11.2508 37.2043 10.0177C37.2043 8.78463 37.4157 7.62199 37.8737 6.52982C38.3317 5.43765 38.9307 4.48641 39.741 3.71132C40.5513 2.901 41.5026 2.26684 42.63 1.80883C43.7574 1.35082 44.9905 1.1042 46.3293 1.1042C47.5976 1.1042 48.7602 1.31559 49.8172 1.7736C50.9093 2.19637 51.8253 2.83054 52.6357 3.60563L50.4865 5.86043C49.3239 4.6978 47.9147 4.09886 46.294 4.09886Z" fill="#3E56A3"/>
<path d="M55.3482 15.8308C54.7845 14.8795 54.5378 13.8226 54.5378 12.6952C54.5378 11.5678 54.8197 10.5108 55.3482 9.5596C55.9119 8.60836 56.6517 7.83327 57.6382 7.3048C58.6247 6.7411 59.7168 6.45925 60.8795 6.45925C62.0773 6.45925 63.1695 6.7411 64.1208 7.3048C65.1072 7.8685 65.8471 8.60836 66.4108 9.5596C66.9745 10.5108 67.2211 11.5678 67.2211 12.6952C67.2211 13.8226 66.9393 14.8795 66.4108 15.8308C65.8471 16.782 65.1072 17.5219 64.1208 18.0856C63.1343 18.6493 62.0421 18.9311 60.8795 18.9311C59.6816 18.9311 58.5894 18.6493 57.6382 18.0856C56.687 17.5219 55.9119 16.782 55.3482 15.8308ZM58.6247 10.3699C58.0257 11.0041 57.7439 11.7792 57.7439 12.6952C57.7439 13.6112 58.0257 14.3863 58.6247 15.0205C59.2236 15.6546 59.9635 15.9717 60.9147 15.9717C61.8307 15.9717 62.6058 15.6546 63.2047 15.0205C63.8037 14.3863 64.0855 13.6112 64.0855 12.6952C64.0855 11.7792 63.8037 11.0041 63.2047 10.3699C62.6058 9.73576 61.866 9.41868 60.9147 9.41868C59.9635 9.41868 59.2236 9.73576 58.6247 10.3699Z" fill="#3E56A3"/>
<path d="M71.731 18.6844H68.5249V6.70574H71.6253V7.65699C72.647 6.84667 73.7744 6.42389 75.0075 6.42389C75.8178 6.42389 76.5929 6.60005 77.3327 6.95236C78.0726 7.30468 78.6715 7.76268 79.1648 8.36161C79.5875 8.85485 79.9046 9.41855 80.116 10.0879C80.3274 10.7573 80.4331 11.5677 80.4331 12.5541V18.6844H77.1918V12.3428C77.1918 11.321 76.9452 10.546 76.4872 10.0879C76.0292 9.62994 75.4302 9.41855 74.6904 9.41855C74.0562 9.41855 73.4925 9.55948 72.964 9.87656C72.4356 10.1936 72.048 10.5107 71.7662 10.8983V18.6844H71.731Z" fill="#3E56A3"/>
<path d="M84.8371 18.6844H81.6311V6.70574H84.7315V7.65699C85.7532 6.84667 86.8806 6.42389 88.1137 6.42389C88.924 6.42389 89.6991 6.60005 90.4389 6.95236C91.1788 7.30468 91.7777 7.76268 92.271 8.36161C92.6937 8.85485 93.0108 9.41855 93.2222 10.0879C93.4336 10.7573 93.5393 11.5677 93.5393 12.5541V18.6844H90.298V12.3428C90.298 11.321 90.0514 10.546 89.5934 10.0879C89.1354 9.62994 88.5364 9.41855 87.7966 9.41855C87.1624 9.41855 86.5987 9.55948 86.0702 9.87656C85.5418 10.1936 85.1542 10.5107 84.8724 10.8983V18.6844H84.8371Z" fill="#3E56A3"/>
<path d="M103.862 14.9499L105.694 16.7819C105.13 17.4513 104.39 17.9798 103.51 18.3673C102.629 18.7549 101.713 18.931 100.762 18.931C98.9296 18.931 97.4499 18.3673 96.252 17.2047C95.0542 16.042 94.4905 14.5623 94.4905 12.6951C94.4905 11.8495 94.6314 11.0744 94.9132 10.2993C95.1951 9.55948 95.5826 8.89008 96.0759 8.29115C96.5691 7.72745 97.2033 7.26944 97.9079 6.91713C98.6478 6.56482 99.4581 6.42389 100.304 6.42389C101.396 6.42389 102.347 6.70574 103.228 7.26944C104.109 7.83315 104.778 8.573 105.236 9.52425C105.729 10.4755 105.941 11.462 105.941 12.5894C105.941 12.9417 105.905 13.2235 105.87 13.5054H97.5556C97.6261 14.3509 97.9784 15.0203 98.5773 15.5488C99.1762 16.0773 99.9161 16.3239 100.762 16.3239C101.396 16.3239 101.96 16.183 102.488 15.9011C103.087 15.6545 103.51 15.3374 103.862 14.9499ZM97.7318 11.1449H102.699C102.664 10.5812 102.418 10.0879 101.96 9.66517C101.502 9.2424 100.973 9.03101 100.339 9.03101C99.6695 9.03101 99.1058 9.2424 98.6125 9.66517C98.1193 10.0879 97.8374 10.5812 97.7318 11.1449Z" fill="#3E56A3"/>
<path d="M116.369 14.386L118.835 16.2181C117.496 18.0149 115.664 18.8957 113.374 18.8957C111.542 18.8957 109.992 18.2967 108.794 17.0989C107.561 15.901 106.962 14.4213 106.962 12.6597C106.962 11.4971 107.244 10.4401 107.808 9.48889C108.371 8.53765 109.146 7.76256 110.133 7.23409C111.119 6.67039 112.212 6.38854 113.409 6.38854C114.431 6.38854 115.382 6.59993 116.263 7.05793C117.144 7.48071 117.884 8.07964 118.448 8.8195L116.193 10.8277C115.876 10.3697 115.453 10.0174 114.995 9.77074C114.502 9.52412 114.008 9.3832 113.445 9.3832C112.529 9.3832 111.754 9.70028 111.119 10.3344C110.521 10.9686 110.203 11.7437 110.203 12.6597C110.203 13.611 110.521 14.386 111.119 15.0202C111.718 15.6191 112.529 15.9362 113.515 15.9362C114.114 15.9362 114.678 15.7953 115.206 15.4782C115.7 15.1964 116.087 14.8441 116.369 14.386Z" fill="#3E56A3"/>
<path d="M128.77 15.9714L129.264 18.6842C128.806 18.8603 128.136 18.9308 127.255 18.9308C125.353 18.9308 123.979 18.3671 123.098 17.2044C122.499 16.3941 122.217 15.1963 122.217 13.6109V9.41833H119.575V6.70552H122.217V1.31513H125.459V6.70552H129.404V9.41833H125.459V13.9984C125.459 14.703 125.6 15.1963 125.846 15.5133C126.198 15.9009 126.727 16.1123 127.502 16.1123C127.96 16.1123 128.418 16.0418 128.77 15.9714Z" fill="#3E56A3"/>
<path d="M134.442 18.6843H130.955L138.388 1.35048H140.749L148.183 18.6843H144.695L143.004 14.8793H136.063L134.442 18.6843ZM139.516 6.7761L137.296 11.8846H141.7L139.516 6.7761Z" fill="#3FC3D8"/>
<path d="M149.134 1.38584H155.018C155.934 1.38584 156.709 1.49153 157.308 1.70292C157.907 1.91431 158.435 2.19616 158.893 2.61893C159.386 3.04171 159.774 3.57018 160.056 4.16911C160.337 4.76804 160.478 5.40221 160.478 6.10683C160.478 6.6353 160.373 7.199 160.161 7.72747C159.95 8.25594 159.668 8.67872 159.386 8.9958C160.161 9.38334 160.796 9.98228 161.254 10.7926C161.747 11.6029 161.958 12.4837 161.958 13.4349C161.958 14.1396 161.817 14.8442 161.535 15.4784C161.254 16.1125 160.866 16.6762 160.373 17.1695C159.351 18.1912 157.836 18.7196 155.828 18.7196H149.063V1.38584H149.134ZM152.446 4.34527V8.04455H154.806C155.652 8.04455 156.251 7.83317 156.638 7.44562C156.955 7.09331 157.131 6.67053 157.131 6.21253C157.131 5.75452 156.955 5.33174 156.638 4.97943C156.251 4.55666 155.652 4.3805 154.806 4.3805H152.446V4.34527ZM152.446 15.725H155.793C156.814 15.725 157.554 15.4784 158.012 14.9499C158.435 14.5271 158.611 13.9986 158.611 13.3645C158.611 12.7303 158.4 12.2018 158.012 11.7791C157.554 11.2506 156.814 11.004 155.793 11.004H152.446V15.725Z" fill="#3FC3D8"/>
<path d="M164.988 18.6843H161.5L168.934 1.35048H171.295L178.728 18.6843H175.24L173.549 14.8793H166.609L164.988 18.6843ZM170.061 6.7761L167.877 11.8846H172.281L170.061 6.7761Z" fill="#3FC3D8"/>
</svg>
